<?xml version="1.0" encoding="utf-8"?>
<!-- Generator: Adobe Illustrator 16.0.0, SVG Export Plug-In . SVG Version: 6.00 Build 0)  -->
<!DOCTYPE svg PUBLIC "-//W3C//DTD SVG 1.1//EN" "http://www.w3.org/Graphics/SVG/1.1/DTD/svg11.dtd">
<svg version="1.1" xmlns="http://www.w3.org/2000/svg" xmlns:xlink="http://www.w3.org/1999/xlink" x="0px" y="0px" width="100px"
	 height="100px" viewBox="0 0 100 100" enable-background="new 0 0 100 100" xml:space="preserve">
<g id="svg2" xmlns:inkscape="http://www.inkscape.org/namespaces/inkscape" xmlns:sodipodi="http://sodipodi.sourceforge.net/DTD/sodipodi-0.dtd" xmlns:dc="http://purl.org/dc/elements/1.1/" xmlns:cc="http://creativecommons.org/ns#" xmlns:rdf="http://www.w3.org/1999/02/22-rdf-syntax-ns#" xmlns:svg="http://www.w3.org/2000/svg" sodipodi:docname="mayflower.svg" inkscape:version="0.48.2 r9819">
	<defs>
		
		
			<inkscape:path-effect  id="path-effect4690" prop_units="false" fuse_tolerance="0" tang_offset="0" normal_offset="0" copytype="single_stretched" pattern="m 20.24371,1.3305725 0,9.9999995 10,-4.9999995 z" prop_scale="0.3" scale_y_rel="false" spacing="0" effect="skeletal" is_visible="true" vertical_pattern="false">
			</inkscape:path-effect>
		
			<inkscape:path-effect  id="path-effect4686" prop_units="false" fuse_tolerance="0" tang_offset="0" normal_offset="0" copytype="single_stretched" pattern="M 0,0 0,10 10,5 z" prop_scale="0.3" scale_y_rel="false" spacing="0" effect="skeletal" is_visible="true" vertical_pattern="false">
			</inkscape:path-effect>
		<inkscape:path-effect  id="path-effect5043" effect="spiro" is_visible="true"></inkscape:path-effect>
		<inkscape:path-effect  id="path-effect5065" effect="spiro" is_visible="true"></inkscape:path-effect>
	</defs>
	
		<sodipodi:namedview  id="namedview6" borderopacity="1" objecttolerance="10" bordercolor="#666666" pagecolor="#ffffff" showgrid="true" inkscape:zoom="5.9520215" guidetolerance="10" gridtolerance="10" inkscape:cy="62.278874" inkscape:cx="47.048683" inkscape:snap-grids="false" inkscape:current-layer="svg2" inkscape:window-maximized="1" inkscape:window-y="-4" inkscape:window-x="-4" inkscape:window-height="853" inkscape:window-width="1600" inkscape:pageshadow="2" inkscape:pageopacity="0">
		<inkscape:grid  type="xygrid" id="grid3807"></inkscape:grid>
	</sodipodi:namedview>
	<g>
		<path d="M6.156,60.125c0.913,0.187,2.148,0.546,3.375,0.969s2.431,0.873,3.313,1.281c1.321,0.452,1.678,0.552,2.063,0.625
			c-0.009-0.035,0.012-0.348,0-0.375c-0.02-0.178-0.075-0.482-0.094-0.875c-0.037-0.786-0.038-1.902-0.063-3.031
			c-0.049-2.258-0.125-5.156-0.125-5.156c-3.759-3.752-7.973-8.164-11.875-12.156C2.532,41.182,2.226,41.107,2,41.125
			c-0.376,0.03-0.569,0.366-0.063,1.125l2.219,2.281v0.188c0.372,4.977,1.083,9.964-0.031,15.063
			C4.825,59.9,5.447,60.018,6.156,60.125z M5.219,45.938c0.653,0.659,1.777,1.809,3.625,3.656c1.158,1.158,2.354,2.311,3.281,3.219
			c0.463,0.454,0.819,0.867,1.125,1.156c0.153,0.145,0.302,0.251,0.406,0.344c0.016,0.014,0.048,0.019,0.063,0.031
			c0.001,0.177,0.016,2.231,0.063,4.406c0.024,1.133,0.087,2.228,0.125,3.031c0,0.031-0.001,0.064,0,0.094
			c-0.207-0.111-0.395-0.223-0.656-0.344c-0.926-0.428-2.154-0.912-3.406-1.344s-2.515-0.799-3.5-1C5.879,59.093,5.496,59,5.156,59
			C5.984,54.468,5.582,50.179,5.219,45.938z"/>
		<path d="M99.063,65.219l-14.281-1.531l11.875-9.281c1.127-1.761-0.75-0.906-0.75-0.906l-12.094,9.438l-0.75,0.469l-7.057-0.713
			l0.088-0.756l0.656-9.844l2.938,0.469c1.937-0.07,0.188-1.156,0.188-1.156L61.969,48.5l-0.094-3.969l2.5-0.063l0.375-0.031
			l0.156-0.281l0.719-1.406l0.25-0.563l-0.563-0.25c-0.191-0.086-0.375-0.148-0.563-0.219c4.127,1.148,7.864,3.975,11.25,8.125
			c0.029,0.036,0.033,0.089,0.063,0.125l0.594-0.344l-0.031-0.094l-7.969-23.844l1.594,0.281l0.219-1.188l-7.781-1.344l-0.313-9.188
			c0.199,0.099,0.413,0.208,0.75,0.344c1.059,0.588,2.127,1.354,3.25,2.125c1.224,0.842,2.52,1.687,3.875,2.375
			c1.202,0.62,2.528,1.139,3.844,1.156c-1.252-0.402-2.261-1.217-3.188-2.094c-1.029-0.988-1.931-2.108-2.844-3.25
			c-0.814-1.028-1.619-2.125-2.625-3.188c-0.47-0.712-1.466-1.524-3.313-1.875c-0.323-0.631-1.031-0.549-1.031,0.719L61.5,23.25
			l-7.656-1.281l-0.188,1.188l1.875,0.313l-0.504,1.278c-0.92-1.293-2.348-2.256-4.007-2.11c-2.726,0.239-5.21,1.272-7.649,2.451
			c-0.104-0.683-0.325-1.352-0.696-1.986c-1.254-2.141-3.693-3.113-6.083-2.945c-0.875,0.062-1.698,0.255-2.513,0.5
			c-0.429-0.431-0.868-0.843-1.315-1.242l-0.484-7.194c1.832-0.599,4.191-0.145,6.594,0.438c2.313,0.632,4.927,1.118,7.188,0.406
			c-2.37,0.007-4.343-1.208-6.344-2.406c-2.183-1.364-4.682-2.61-7.813-2.813c-0.143-0.318-0.386-0.469-0.594-0.469
			c-0.288,0.001-0.553,0.331-0.5,1l0.707,10.006c-0.688-0.535-1.388-1.038-2.117-1.453c-3.059-1.743-6.544,0.096-7.349,3.217
			c-5.449,1.433-10.53,5.628-11.357,10.659c-0.325,1.973,0.367,3.973,1.708,5.191c-1.427,1.266-2.796,2.587-3.973,4.082
			c-3.034,3.855,0.309,10.119,4.942,8.406l1.157,0.174l0.844,20.063l-3.125-0.031c0.069-0.492,0.149-1.055,0.188-1.531l0.094-0.563
			l-0.563-0.063C9.685,66.154,8.018,65.51,6.938,65s-1.531-0.875-1.531-0.875l-1-0.781l0.031,1.25l0.094,9.469v0.313l0.281,0.188
			c0,0,0.816,0.506,0.938,1.25l0.063,4.25v0.25L6.031,80.5c0,0,0.302,0.254,0.5,0.781l0.188,3.563l0.031,0.313L7,85.313
			c0,0,0.96,0.61,1,1.813l0.031,0.563h0.563l57.031,1.438h0.5l0.094-0.5c0.404-2.507,0.777-4.163,1.625-5.469
			s2.173-2.353,4.656-3.594l0.188-0.094c-0.068,0.223-0.111,0.436-0.188,0.656l-0.188,0.531l0.563-0.094
			c3.666-0.404,9.986,0.202,17.156,1.125l0.219,0.031l0.156-0.219c3.248-5.564,6.09-10.638,8.969-15.75l0.25-0.438L99.063,65.219z
			 M65.375,50.219l10.656,1.75l-0.608,9.361l-0.017,0.201l-0.12,1.09l-1.817-0.184l-0.313-0.031v0.875
			c0.222,1.371,0.391,2.729,0.51,4.076l-1.541-0.451l-0.156-0.058c-7.348-2.474-15.027-2.985-23.625-0.224l-0.652-14.147
			c2.324-0.218,4.077-1.857,5.217-4.043L65.375,50.219z M73.844,70.594l-0.031-0.063l-4.25,3.375L69.344,74l-3.625-0.031l-0.156-3.5
			l-0.031-0.563l-0.563-0.031l-3.406-0.094l-0.25-4.25c3.796,0.172,7.443,0.951,11,2.188l1.409,0.367
			C73.783,68.926,73.83,69.763,73.844,70.594z M36.281,73.063l-1.5,0.063l-0.063-5.656c5.24,0.256,11.164,1.291,18.125,3.438
			l0.438,0.156v-0.5l0.094-2.875l0.125-1.594c1.938-0.359,3.825-0.565,5.688-0.594c0.297-0.004,0.611-0.003,0.906,0l0.281,4.313
			l-7.094,1.25l-4.625,0.813l-0.406,0.063l-0.094,0.406l-0.813,4.625l-10.625,0.75l0.188-4.031V73L36.281,73.063z M32.875,50.188
			l-17.438-2.594l0.75-0.563c1.165-0.857,2.312-1.617,3.447-2.319c1.408,1.966,4.241,3.142,6.809,1.916
			c1.297-0.619,2.506-1.39,3.683-2.219l0.061,0.06l0.188,0.188h0.313l1.423-0.095c0.152,0.072,0.307,0.138,0.464,0.196
			L32.875,50.188z M57.156,42.406l0.813,1.813l0.156,0.344H58.5l2.188-0.031l0.094,3.781l-7.277-1.205
			c0.617-1.548,1.097-3.242,1.329-4.955c1.56-0.512,3.063-0.823,4.511-0.935c-0.604,0.092-1.207,0.227-1.781,0.375l-0.688,0.188
			L57.156,42.406z M35.847,44.94c0.902,1.361,2.419,2.344,4.057,2.45c1.188,1.798,2.605,3.589,4.492,4.489l-10.302-1.504
			l-0.308-5.312C34.487,45.162,35.191,45.127,35.847,44.94z M56.281,23.594l11.531,1.969l7.625,22.688
			c-3.533-3.978-7.445-6.703-11.875-7.531c-2.698-0.505-5.573-0.293-8.645,0.695c0.194-2.095-0.013-4.175-0.805-6.003
			c1.875-2.786,2.846-5.836,1.729-9.104c-0.089-0.26-0.201-0.518-0.329-0.771L56.281,23.594z M15.25,48.781l3.344,0.469
			l27.375,4.094v0.031l0.719,0.125v-0.063L47,53.5l0.688,13.563h-0.031l0.063,0.469l1.406-0.406c0.023-0.007,0.04,0.007,0.063,0
			c0.487-0.148,0.987-0.279,1.469-0.406c0.736-0.193,1.463-0.384,2.188-0.531l-0.156,1.875l-0.125,2.063
			c-16.092-4.876-26.842-3.79-36.031-1l0.031-0.375l-0.438-0.031L15.25,48.781z M33.594,73.188l-5.688,0.375h-0.063
			c0,0-1.959,0.232-3.875,0.188c-0.958-0.022-1.902-0.135-2.531-0.344c-0.314-0.104-0.541-0.201-0.656-0.313
			s-0.129-0.172-0.125-0.313h-0.031l0.219-1.313l0.094-0.719l-0.719,0.031l-3.969,0.156l0.156-1.063
			c4.54-1.403,9.431-2.42,15.188-2.469c0.957-0.008,1.963,0.017,2.969,0.063L33.531,67.5L33.594,73.188z M6.188,74.25
			c-0.189-0.21-0.337-0.408-0.469-0.5l-0.094-8.156c0.297,0.186,0.273,0.245,0.813,0.5c1.05,0.496,2.755,1.009,4.781,1.406
			C11.138,68.188,11,69.188,11,69.188l-0.063,0.688h0.656l3.625,0.031L15,71.5l-0.063,0.688l0.688-0.031l3.969-0.188L19.5,72.688
			v0.063c-0.015,0.463,0.164,0.893,0.469,1.188s0.706,0.485,1.125,0.625c0.839,0.279,1.856,0.352,2.875,0.375
			c2.018,0.048,3.963-0.183,4-0.188H28l7.688-0.469L35.5,78.313v0.656l0.625-0.031l11.781-0.813l0.438-0.031l0.063-0.438
			l0.844-4.688l11.438-2l3.75,0.094l0.125,3.5l0.063,0.563l0.531,0.031l6.938,0.094C46.984,81.634,24.525,82.383,6.188,74.25z
			 M66.844,82.5c-0.932,1.434-1.337,3.174-1.719,5.438L8.969,86.5c-0.288-1.096-0.806-1.758-1.094-1.969l-0.156-3.438V81
			l-0.063-0.063c-0.07-0.211-0.145-0.338-0.219-0.469c19.616,6.271,40.661,3.394,61.781-0.313
			C68.199,80.874,67.408,81.631,66.844,82.5z M71.688,78.688l-0.031-0.156C49.384,82.5,27.306,85.83,7,79.063l-0.063-3.344v-0.031
			l-0.063-0.031c-0.055-0.338-0.158-0.635-0.281-0.875c18.341,7.923,40.721,7.113,65.625,0.781L71.688,78.688z M71.313,74.063
			L73.875,72c-0.012,0.684-0.033,1.404-0.219,2.063H71.313z M89.875,80.938c-6.834-0.874-12.791-1.402-16.594-1.063
			c1.702-5.311,1.491-10.956,0.563-16.688l24.625,2.688C95.707,70.779,92.979,75.615,89.875,80.938z"/>
	</g>
</g>
<g id="Layer_2">
</g>
</svg>
