<?xml version="1.0" encoding="UTF-8" standalone="no"?><svg xmlns="http://www.w3.org/2000/svg" xmlns:xlink="http://www.w3.org/1999/xlink" clip-rule="evenodd" stroke-miterlimit="10" viewBox="0 0 235 81"><desc>SVG generated by Keynote</desc><defs></defs><g transform="matrix(1.00, 0.00, -0.00, -1.00, 0.0, 81.0)"><g><clipPath id="clip0x6080010a6a20"><path d="M 2.0 79.0 L 233.0 79.0 L 233.0 1.0 L 2.0 1.0 Z M 1.8 79.1 "></path></clipPath><g clip-path="url(#clip0x6080010a6a20)"><g><clipPath id="clip0x608000cb5420"><path d="M 2.0 1.0 L 233.0 1.0 L 233.0 79.0 L 2.0 79.0 Z M 2.0 1.0 "></path></clipPath><g clip-path="url(#clip0x608000cb5420)"><text xml:space="preserve" font-family="Symbol,Symbol" font-size="384.0" fill="#000000" transform="matrix(0.08, 0.00, -0.02, -0.08, 5.1, 31.2)">π</text><text xml:space="preserve" font-family="Symbol,Symbol" font-size="384.0" fill="#000000" transform="matrix(0.08, 0.00, -0.00, -0.08, 28.8, 31.2)">∫</text><text xml:space="preserve" font-family="Symbol,Symbol" font-size="222.0" fill="#000000" transform="matrix(0.08, 0.00, -0.00, -0.08, 39.6, 23.6)">−</text><text xml:space="preserve" font-family="Times-Roman,Times" font-size="222.0" fill="#000000" transform="matrix(0.08, 0.00, -0.00, -0.08, 49.0, 23.6)">4</text><text xml:space="preserve" font-family="Times-Roman,Times" font-size="222.0" fill="#000000" transform="matrix(0.08, 0.00, -0.00, -0.08, 39.9, 44.7)">4</text><text xml:space="preserve" font-family="Times-Roman,Times" font-size="384.0" fill="#000000" transform="matrix(0.08, 0.00, -0.00, -0.08, 64.9, 31.2)">4</text><text xml:space="preserve" font-family="Times-Roman,Times" font-size="384.0" fill="#000000" transform="matrix(0.08, 0.00, -0.00, -0.08, 83.4, 31.2)">s</text><text xml:space="preserve" font-family="Times-Roman,Times" font-size="384.0" fill="#000000" transform="matrix(0.08, 0.00, -0.00, -0.08, 94.7, 31.2)">i</text><text xml:space="preserve" font-family="Times-Roman,Times" font-size="384.0" fill="#000000" transform="matrix(0.08, 0.00, -0.00, -0.08, 102.9, 31.2)">n</text><text xml:space="preserve" font-family="Times-Roman,Times" font-size="222.0" fill="#000000" transform="matrix(0.08, 0.00, -0.00, -0.08, 119.4, 44.7)">2</text><text xml:space="preserve" font-family="Times-Roman,Times" font-size="384.0" fill="#000000" transform="matrix(0.08, 0.00, -0.00, -0.08, 131.2, 31.2)">(</text><text xml:space="preserve" font-family="Symbol,Symbol" font-size="384.0" fill="#000000" transform="matrix(0.08, 0.00, -0.02, -0.08, 142.8, 50.6)">π</text><text xml:space="preserve" font-family="Times-Roman,Times" font-size="384.0" fill="#000000" transform="matrix(0.08, 0.00, -0.00, -0.08, 145.6, 8.4)">4</text><path d="M 142.3 40.1 L 164.0 40.1 L 164.0 38.6 L 142.3 38.6 Z M 142.3 40.1 " fill="#000000"></path><text xml:space="preserve" font-family="Times-Italic,Times" font-style="italic" font-size="384.0" fill="#000000" transform="matrix(0.08, 0.00, -0.00, -0.08, 169.4, 31.2)">x</text><text xml:space="preserve" font-family="Times-Roman,Times" font-size="384.0" fill="#000000" transform="matrix(0.08, 0.00, -0.00, -0.08, 184.3, 31.2)">)</text><text xml:space="preserve" font-family="Symbol,Symbol" font-size="384.0" fill="#000000" transform="matrix(0.08, 0.00, -0.00, -0.08, 196.6, 31.2)">∂</text><text xml:space="preserve" font-family="Times-Italic,Times" font-style="italic" font-size="384.0" fill="#000000" transform="matrix(0.08, 0.00, -0.00, -0.08, 213.4, 31.2)">x</text></g></g></g></g></g></svg>